<svg width="49" height="53" viewBox="0 0 49 53" fill="none" xmlns="http://www.w3.org/2000/svg">
<path d="M0.603153 24.0151C0.874972 25.0729 1.37902 26.0612 2.08078 26.9122C2.78254 27.7631 3.66542 28.4568 4.66895 28.9455C4.06964 29.7979 3.65371 30.759 3.44608 31.7712C3.23846 32.7834 3.2434 33.8259 3.46063 34.8362C3.67785 35.8465 4.10288 36.8038 4.71025 37.6507C5.31761 38.4977 6.09481 39.2168 6.99526 39.7651C7.83435 40.2783 8.77245 40.6198 9.75216 40.7687C10.7319 40.9177 11.7326 40.8709 12.693 40.6313C16.3146 39.7321 19.7828 35.1849 22.2395 31.121C19.9654 38.4812 14.4217 49.7837 1.7589 50.2715L1.84374 52.35C14.7881 51.8515 20.9188 41.2878 23.6932 33.4668C23.806 37.6508 24.5176 42.0883 26.7498 44.3062C27.4358 44.9881 28.2564 45.5287 29.1625 45.8956C30.0685 46.2626 31.0414 46.4484 32.0231 46.442L32.0812 46.4417C33.1439 46.4277 34.1927 46.2055 35.1649 45.7885C36.1371 45.3714 37.0125 44.7681 37.7388 44.0146C38.4651 43.2611 39.0273 42.3729 39.3916 41.4034C39.756 40.4338 39.915 39.4029 39.8592 38.3722C40.919 38.45 41.984 38.3192 42.9905 37.9877C43.997 37.6562 44.9242 37.1307 45.7166 36.4429C46.509 35.755 47.1502 34.9189 47.6018 33.9846C48.0534 33.0504 48.3062 32.0372 48.3449 31.0058C48.382 30.0436 48.2171 29.0841 47.8601 28.1859C47.5031 27.2876 46.9616 26.4693 46.2684 25.7808C43.2915 22.8234 36.1911 22.3992 31.0518 22.5242C35.5735 20.2277 41.3162 16.6333 42.4362 12.7532C42.9454 10.8606 42.6611 8.84919 41.6456 7.15984C40.6301 5.47049 38.9663 4.24106 37.0189 3.74107C35.9396 3.44117 34.8064 3.37116 33.6967 3.53584C32.587 3.70053 31.527 4.09602 30.5893 4.69526C30.1287 3.76506 29.4796 2.93473 28.6807 2.25402C27.8818 1.57331 26.9496 1.05624 25.9399 0.733795C24.9303 0.411349 23.864 0.290168 22.805 0.377513C21.746 0.464858 20.7161 0.758931 19.7769 1.24211C18.9003 1.69195 18.1272 2.31036 17.5046 3.05968C16.8821 3.80899 16.4231 4.67353 16.1556 5.60064C15.015 9.55281 18.1306 15.672 20.7988 19.9282C16.4722 17.2127 10.0969 13.9201 5.93161 14.9533C4.97104 15.1918 4.0705 15.6176 3.28481 16.2049C2.49912 16.7921 1.84473 17.5285 1.36147 18.3692C0.362462 20.0839 0.0905641 22.109 0.603445 24.0151L0.603153 24.0151ZM44.7367 27.2349C45.2275 27.7239 45.6108 28.3048 45.863 28.9422C46.1152 29.5796 46.2313 30.2602 46.2039 30.9425C46.1553 32.3736 45.5348 33.7301 44.4738 34.7244C43.7539 35.4234 42.8509 35.9182 41.8625 36.1553C40.8742 36.3924 39.8379 36.3627 38.8655 36.0696L36.9396 35.4709L37.5116 37.3545C37.791 38.3053 37.7977 39.3121 37.531 40.2663C37.2642 41.2205 36.7341 42.0858 35.9979 42.7688C34.9502 43.776 33.5395 44.3473 32.0652 44.3615C31.3617 44.3751 30.6628 44.2481 30.0119 43.9884C29.361 43.7288 28.7721 43.342 28.2816 42.852C25.101 39.692 25.6917 29.4791 26.2916 24.8912C31.0291 24.4141 41.5568 24.0747 44.7367 27.2349ZM18.2184 6.16213C18.409 5.50484 18.7354 4.89211 19.1777 4.36126C19.6201 3.83041 20.169 3.39255 20.7912 3.07435C21.6088 2.64758 22.5228 2.4248 23.451 2.42602C23.9844 2.42651 24.5152 2.49799 25.0286 2.63847C26.012 2.89433 26.9048 3.40622 27.6104 4.11887C28.3161 4.83152 28.8078 5.71783 29.0325 6.6821L29.4617 8.60122L30.8554 7.17839C31.5636 6.46802 32.4581 5.95899 33.4424 5.70625C34.4268 5.45351 35.4635 5.46666 36.4407 5.74427C37.8413 6.09488 39.0418 6.97037 39.7789 8.1789C40.5161 9.38743 40.7299 10.8305 40.3734 12.1918C39.1453 16.4467 29.7423 21.0566 25.3509 22.8463C22.5565 19.1008 16.9904 10.4171 18.2185 6.16214L18.2184 6.16213ZM3.2244 19.3959C3.56628 18.7992 4.02963 18.2763 4.58626 17.859C5.14288 17.4417 5.78113 17.1388 6.46215 16.9687C6.8699 16.8719 7.28851 16.8249 7.70825 16.829C12.3679 16.829 20.0137 21.7208 23.4748 24.2756C21.532 28.4981 16.5711 37.5213 12.1625 38.616C11.481 38.7843 10.7713 38.8161 10.0767 38.7095C9.38215 38.603 8.71716 38.3602 8.12227 37.9961C6.87033 37.2398 5.97089 36.0398 5.61463 34.6505C5.35126 33.6954 5.36153 32.6886 5.64433 31.7388C5.92712 30.789 6.4717 29.9322 7.21927 29.261L8.71615 27.9406L6.75007 27.4798C5.76253 27.2395 4.86134 26.7417 4.14383 26.0403C3.42631 25.3389 2.91972 24.4605 2.67876 23.5H2.67845C2.30416 22.115 2.49998 20.643 3.2244 19.3959Z" fill="#324950" stroke="#FFFAFA" stroke-width="0.7"/>
</svg>
