<svg width="49" height="49" viewBox="0 0 49 49" fill="none" xmlns="http://www.w3.org/2000/svg">
<path d="M20.2534 48.5699C16.5312 48.5806 12.8438 47.853 9.40465 46.4291C5.96551 45.0052 2.84295 42.9132 0.217727 40.2744C0.148737 40.206 0.0939776 40.1246 0.0566086 40.0349C0.0192395 39.9452 0 39.849 0 39.7518C0 39.6546 0.0192395 39.5584 0.0566086 39.4687C0.0939776 39.379 0.148737 39.2976 0.217727 39.2292L39.2292 0.217727C39.2976 0.148737 39.3791 0.0939776 39.4687 0.0566086C39.5584 0.0192395 39.6546 0 39.7518 0C39.849 0 39.9452 0.0192395 40.0349 0.0566086C40.1246 0.0939776 40.206 0.148737 40.2744 0.217727C45.5855 5.53297 48.5689 12.7395 48.5689 20.2534C48.5689 27.7674 45.5855 34.9739 40.2744 40.2891C37.6492 42.9229 34.5284 45.0106 31.0921 46.4319C27.6558 47.8532 23.9721 48.5798 20.2534 48.5699ZM1.78555 39.7371C6.8665 44.5468 13.6237 47.1841 20.6194 47.0879C27.6151 46.9917 34.2972 44.1695 39.2439 39.2219C44.1884 34.2745 47.0078 27.5934 47.1027 20.5995C47.1975 13.6055 44.5603 6.85047 39.7518 1.77083L1.78555 39.7371Z" fill="#324950"/>
<path d="M20.2535 44.4994C17.0653 44.5106 13.9065 43.8891 10.9601 42.6712C8.0137 41.4532 5.33817 39.6628 3.08842 37.4038C2.94982 37.2651 2.87195 37.0772 2.87195 36.8811C2.87195 36.6851 2.94982 36.4971 3.08842 36.3585C3.22702 36.2199 3.41501 36.1421 3.61103 36.1421C3.80704 36.1421 3.99503 36.2199 4.13363 36.3585C8.41162 40.6286 14.2091 43.0269 20.2535 43.0269C26.2979 43.0269 32.0953 40.6286 36.3733 36.3585C40.6434 32.0805 43.0416 26.2831 43.0416 20.2387C43.0416 14.1943 40.6434 8.39685 36.3733 4.11886C36.2347 3.98026 36.1568 3.79227 36.1568 3.59626C36.1568 3.40024 36.2347 3.21225 36.3733 3.07365C36.5119 2.93504 36.6999 2.85718 36.8959 2.85718C37.0919 2.85718 37.2799 2.93504 37.4185 3.07365C41.9673 7.62807 44.5223 13.8018 44.5223 20.2387C44.5223 26.6756 41.9673 32.8493 37.4185 37.4038C35.1688 39.6628 32.4932 41.4532 29.5468 42.6712C26.6004 43.8891 23.4417 44.5106 20.2535 44.4994Z" fill="#324950"/>
<path d="M34.0253 34.7466C33.9284 34.7471 33.8324 34.7286 33.7427 34.6919C33.653 34.6553 33.5714 34.6013 33.5027 34.5331L31.2135 32.2366C31.0929 32.0958 31.0299 31.9146 31.037 31.7294C31.0442 31.5441 31.121 31.3684 31.2521 31.2373C31.3832 31.1062 31.5589 31.0294 31.7442 31.0223C31.9294 31.0151 32.1105 31.0781 32.2513 31.1987L34.5479 33.4879C34.6169 33.5563 34.6716 33.6377 34.709 33.7274C34.7464 33.8171 34.7656 33.9133 34.7656 34.0105C34.7656 34.1077 34.7464 34.2039 34.709 34.2936C34.6716 34.3833 34.6169 34.4647 34.5479 34.5331C34.4791 34.6013 34.3975 34.6553 34.3078 34.6919C34.2182 34.7286 34.1221 34.7471 34.0253 34.7466Z" fill="#324950"/>
<path d="M37.3449 30.3081C37.2241 30.3075 37.1053 30.2772 36.999 30.2198L34.1504 28.6961C33.9786 28.5985 33.8526 28.4366 33.8002 28.2462C33.7477 28.0557 33.7731 27.8521 33.8707 27.6803C33.9683 27.5085 34.1302 27.3826 34.3207 27.3301C34.5111 27.2777 34.7147 27.303 34.8865 27.4006L37.735 28.9537C37.8795 29.0317 37.9938 29.1557 38.0596 29.3061C38.1255 29.4564 38.1392 29.6245 38.0986 29.7836C38.058 29.9426 37.9654 30.0835 37.8355 30.1839C37.7056 30.2843 37.5459 30.3384 37.3817 30.3375L37.3449 30.3081Z" fill="#324950"/>
<path d="M39.2882 25.1115C39.2369 25.1187 39.1848 25.1187 39.1336 25.1115L35.9611 24.4196C35.7659 24.3786 35.595 24.2617 35.4859 24.0947C35.3769 23.9276 35.3386 23.7241 35.3796 23.5289C35.4206 23.3337 35.5375 23.1628 35.7045 23.0537C35.8716 22.9447 36.0751 22.9064 36.2703 22.9474L39.4427 23.6393C39.6379 23.6598 39.817 23.757 39.9406 23.9096C40.0641 24.0621 40.122 24.2575 40.1015 24.4527C40.081 24.6479 39.9838 24.827 39.8313 24.9505C39.6787 25.0741 39.4834 25.132 39.2882 25.1115Z" fill="#324950"/>
<path d="M36.4395 19.8192C36.2443 19.826 36.0544 19.755 35.9115 19.6218C35.7686 19.4886 35.6845 19.3041 35.6777 19.1089C35.6709 18.9136 35.7419 18.7237 35.8751 18.5808C36.0083 18.438 36.1928 18.3539 36.388 18.347L39.6267 18.1115C39.7234 18.1045 39.8205 18.1166 39.9125 18.1473C40.0045 18.1779 40.0896 18.2265 40.1627 18.2901C40.2359 18.3537 40.2958 18.4311 40.339 18.518C40.3822 18.6048 40.4077 18.6993 40.4143 18.796C40.4287 18.9878 40.3674 19.1776 40.2436 19.3248C40.1198 19.472 39.9433 19.5649 39.7518 19.5836L36.5131 19.8118L36.4395 19.8192Z" fill="#324950"/>
<path d="M35.4606 15.2997C35.3102 15.3002 35.1632 15.2546 35.0395 15.1691C34.9158 15.0835 34.8213 14.9622 34.7687 14.8213C34.702 14.6387 34.7102 14.4372 34.7916 14.2607C34.873 14.0842 35.0208 13.947 35.2029 13.8791L38.2797 12.7382C38.4632 12.6699 38.6663 12.6773 38.8444 12.7587C39.0225 12.8401 39.1609 12.989 39.2292 13.1725C39.2975 13.356 39.2902 13.5591 39.2087 13.7372C39.1273 13.9153 38.9784 14.0537 38.7949 14.122L35.755 15.2556C35.6609 15.2902 35.5607 15.3052 35.4606 15.2997Z" fill="#324950"/>
<path d="M33.245 11.244C33.1307 11.244 33.018 11.2174 32.9158 11.1663C32.8136 11.1152 32.7247 11.041 32.6561 10.9496C32.539 10.7934 32.4887 10.5971 32.5163 10.4038C32.5439 10.2106 32.6472 10.0362 32.8033 9.91907L35.4017 7.97586C35.5578 7.85873 35.7541 7.80844 35.9474 7.83604C36.1406 7.86365 36.315 7.9669 36.4321 8.12307C36.5493 8.27925 36.5996 8.47555 36.572 8.66881C36.5444 8.86206 36.4411 9.03644 36.2849 9.15357L33.6866 11.0968C33.5592 11.1923 33.4042 11.244 33.245 11.244Z" fill="#324950"/>
<path d="M29.5867 38.0736C29.4536 38.0732 29.323 38.0368 29.2089 37.9681C29.0949 37.8994 29.0016 37.801 28.939 37.6835L27.3859 34.8349C27.2883 34.6631 27.2629 34.4596 27.3154 34.2691C27.3678 34.0786 27.4938 33.9167 27.6656 33.8191C27.8374 33.7215 28.0409 33.6961 28.2314 33.7486C28.4219 33.8011 28.5838 33.927 28.6814 34.0988L30.2345 36.9474C30.3263 37.1184 30.3469 37.3187 30.2918 37.5048C30.2366 37.6909 30.1102 37.8477 29.94 37.9411C29.8368 38.0171 29.7145 38.063 29.5867 38.0736Z" fill="#324950"/>
<path d="M24.3902 40.0094C24.219 40.0132 24.0519 39.9573 23.9175 39.8511C23.7832 39.745 23.69 39.5953 23.6541 39.4279L22.9622 36.2555C22.9212 36.0603 22.9595 35.8568 23.0685 35.6897C23.1776 35.5227 23.3485 35.4059 23.5437 35.3649C23.7389 35.3239 23.9424 35.3621 24.1095 35.4711C24.2765 35.5802 24.3934 35.7511 24.4344 35.9463L25.1263 39.1188C25.1657 39.308 25.1292 39.5052 25.0245 39.6677C24.9199 39.8302 24.7555 39.945 24.5668 39.9874C24.5094 40.0033 24.4498 40.0107 24.3902 40.0094Z" fill="#324950"/>
<path d="M18.8623 40.3996H18.8107C18.714 40.393 18.6195 40.3674 18.5327 40.3243C18.4458 40.2811 18.3684 40.2212 18.3048 40.148C18.2412 40.0748 18.1926 39.9898 18.162 39.8978C18.1314 39.8058 18.1192 39.7087 18.1262 39.612L18.3617 36.3733C18.369 36.2766 18.3952 36.1823 18.4389 36.0958C18.4826 36.0093 18.5429 35.9322 18.6164 35.869C18.6898 35.8058 18.775 35.7576 18.8671 35.7273C18.9592 35.697 19.0563 35.6852 19.153 35.6924C19.2497 35.6997 19.344 35.7259 19.4305 35.7696C19.517 35.8133 19.5941 35.8736 19.6573 35.947C19.7205 36.0205 19.7687 36.1057 19.799 36.1978C19.8293 36.2899 19.8411 36.387 19.8339 36.4837L19.5983 39.7371C19.58 39.9193 19.4945 40.0881 19.3583 40.2106C19.2222 40.3331 19.0454 40.4005 18.8623 40.3996Z" fill="#324950"/>
<path d="M13.4448 39.2218C13.3571 39.2209 13.2702 39.206 13.1872 39.1777C13.012 39.1097 12.8694 38.9774 12.7886 38.8077C12.7079 38.6379 12.6951 38.4438 12.7529 38.265L13.8938 35.225C13.9617 35.0429 14.0989 34.895 14.2754 34.8137C14.4519 34.7323 14.6534 34.7241 14.836 34.7907C14.927 34.8243 15.0105 34.8756 15.0817 34.9415C15.1529 35.0075 15.2103 35.0869 15.2506 35.1752C15.291 35.2634 15.3135 35.3588 15.3169 35.4557C15.3202 35.5527 15.3044 35.6494 15.2703 35.7403L14.1367 38.7434C14.0841 38.8843 13.9896 39.0057 13.8659 39.0912C13.7422 39.1767 13.5952 39.2223 13.4448 39.2218Z" fill="#324950"/>
<path d="M8.57945 36.5647C8.42019 36.5647 8.26522 36.513 8.13781 36.4175C7.98164 36.3003 7.87839 36.1259 7.85078 35.9327C7.82318 35.7394 7.87347 35.5431 7.9906 35.387L9.93381 32.7886C10.0509 32.6325 10.2253 32.5292 10.4186 32.5016C10.6118 32.474 10.8081 32.5243 10.9643 32.6414C11.1205 32.7586 11.2237 32.9329 11.2513 33.1262C11.2789 33.3194 11.2286 33.5157 11.1115 33.6719L9.16831 36.2702C9.09974 36.3617 9.01084 36.4359 8.90863 36.487C8.80642 36.5381 8.69372 36.5647 8.57945 36.5647Z" fill="#324950"/>
</svg>
