<svg width="42" height="51" viewBox="0 0 42 51" fill="none" xmlns="http://www.w3.org/2000/svg">
<path d="M38.6343 37.592C39.4144 38.0688 40.1925 38.837 40.5535 40.0818C40.5903 40.2101 40.665 40.3165 40.7611 40.3934C40.9155 40.517 41.127 40.5649 41.3321 40.5031C41.6655 40.4021 41.8572 40.0501 41.7611 39.7168C40.9907 37.0585 38.8099 36.0996 37.5431 35.7599C37.9277 34.9699 38.3525 33.6465 38.1745 31.8401C37.7632 27.6702 34.4752 23.165 28.4034 18.4692C14.4193 7.63353 14.4907 2.54751 15.1692 0.861005C15.2996 0.53681 15.1434 0.169627 14.8227 0.0436214C14.5008 -0.0834058 14.1343 0.0764458 14.0035 0.400301C13.2197 2.34565 13.3743 6.40112 20.7599 13.5802C18.6141 13.1208 15.7182 13.2254 13.1292 15.7514C12.7693 14.9848 11.9395 14.0319 10.1061 13.0976C9.79783 12.9405 9.4182 13.0652 9.25834 13.3757C9.09847 13.6861 9.21597 14.0668 9.52608 14.2225C10.5642 14.7512 11.1865 15.2535 11.5625 15.6801C8.27183 14.1139 4.18879 14.9676 1.78989 17.965C-1.00303 21.4546 -0.46839 26.5393 2.98119 29.3001C4.94418 30.8712 7.43317 31.3517 9.73018 30.8349C9.72878 33.189 10.7442 35.5133 12.7077 37.0847C16.1568 39.8452 21.2351 39.2529 24.028 35.7632C26.1572 33.1029 26.3473 29.5182 24.7929 26.74C25.1923 27.0518 25.5868 27.4361 25.9302 27.9163C26.129 28.1955 26.5238 28.2601 26.8069 28.0546C27.0901 27.8499 27.1558 27.4556 26.9548 27.1741C25.8718 25.657 24.4082 24.9128 23.474 24.5682C24.1939 23.6731 25.6522 22.1736 27.5503 21.8466C28.993 21.5985 30.4726 22.0717 31.9358 23.2654C35.591 26.9978 36.7071 29.9384 36.9172 31.921C37.0643 33.3074 36.7981 34.3348 36.5251 34.9847C35.6482 33.7053 33.8845 31.6167 31.8063 31.8356C31.4607 31.8725 31.2066 32.1831 31.239 32.5288C31.272 32.8765 31.5791 33.1265 31.924 33.0898C32.764 33.001 33.6394 33.6021 34.3755 34.3529C31.295 33.3813 27.7746 34.3402 25.6172 37.0358C22.8243 40.5255 23.3589 45.6101 26.8085 48.371C30.2592 51.1314 35.3374 50.539 38.1304 47.0494C40.3726 44.2479 40.4664 40.4216 38.6343 37.592ZM3.7731 28.3115C0.862435 25.982 0.411572 21.6916 2.76811 18.7472C4.38001 16.7332 6.8944 15.8637 9.25381 16.2603C8.47659 16.5539 7.72817 17.1255 7.13334 18.132C6.97163 18.4064 7.03789 18.7517 7.27693 18.943C7.30033 18.9617 7.3251 18.9787 7.35236 18.9935C7.65048 19.1686 8.03596 19.0662 8.21432 18.7649C8.36213 18.5139 9.7059 16.4138 12.2083 17.5969C12.4248 18.2821 12.9562 20.4795 11.4806 22.0356C11.2396 22.2896 11.2476 22.6885 11.4981 22.9265C11.5108 22.9394 11.5248 22.9507 11.5389 22.9619C11.7898 23.1628 12.1587 23.1396 12.387 22.8987C13.4941 21.7317 13.7625 20.344 13.737 19.1953C14.5321 20.4156 14.8988 21.8563 14.8169 23.291C13.5662 23.7987 12.4208 24.6195 11.5167 25.7491C10.6126 26.8787 10.0627 28.1761 9.84204 29.5068C7.8043 30.0885 5.53745 29.7236 3.7731 28.3115ZM23.0517 34.9812C20.6952 37.9256 16.4102 38.4257 13.4996 36.0961C10.5889 33.7666 10.138 29.4761 12.4946 26.5318C13.9901 24.6632 16.2613 23.7827 18.4659 23.9805C17.9206 24.1604 17.4096 24.4702 17.0029 24.9784C16.7841 25.2517 16.8265 25.6478 17.0962 25.8636C17.3659 26.0794 17.7619 26.0335 17.9803 25.7607C18.9295 24.5747 21.0927 25.1354 21.8926 25.3958C22.0141 26.1412 22.2061 28.0478 21.309 29.4478C21.1332 29.7223 21.195 30.0802 21.4417 30.2777C21.4587 30.2913 21.4768 30.3044 21.4961 30.3169C21.7872 30.5033 22.1769 30.4149 22.3657 30.1206C23.0717 29.0187 23.2525 27.7239 23.2533 26.6818C25.0226 29.0948 25.0294 32.5102 23.0517 34.9812ZM27.3436 20.6052C25.1615 20.9845 23.5294 22.5433 22.6471 23.5978C22.2102 22.5874 21.3906 21.2268 20.0368 20.8162C19.7056 20.7156 19.3529 20.9035 19.2489 21.2374C19.1448 21.5707 19.3277 21.9218 19.6601 22.0227C20.2779 22.21 20.7696 22.7786 21.1318 23.3933C19.5327 22.6754 17.7614 22.5144 16.0894 22.8911C16.0899 21.1363 15.5256 19.3992 14.4245 17.9771C15.0545 18.1883 15.7046 18.5949 16.0571 19.3776C16.2002 19.6933 16.5723 19.8309 16.8888 19.6839C17.2057 19.5372 17.3464 19.1627 17.2045 18.8465C16.5121 17.3131 15.1279 16.7722 14.0678 16.5874C18.1203 12.7221 22.9231 15.6623 23.2517 15.8717C24.542 17.0033 25.9907 18.1994 27.6299 19.4697C28.1109 19.8427 28.5643 20.2091 28.9985 20.5707C28.4473 20.5052 27.8958 20.5099 27.3436 20.6052ZM27.6012 47.3823C24.6901 45.0525 24.2392 40.762 26.5958 37.8176C28.2989 35.6896 31.0088 34.8453 33.4797 35.4165C32.8062 35.5517 32.1462 35.8332 31.6331 36.3679C31.3908 36.6209 31.3964 37.0193 31.6449 37.2599C31.9052 37.5084 32.2927 37.4889 32.5347 37.2371C33.3817 36.354 35.1566 36.5306 36.0618 36.7354C36.4243 37.8396 36.9234 40.1141 36.045 41.121C35.8154 41.3842 35.8393 41.7825 36.0997 42.0099C36.1074 42.016 36.1142 42.0215 36.1214 42.0273C36.3813 42.2353 36.7631 42.202 36.987 41.9449C37.7717 41.0465 37.8728 39.7387 37.7503 38.5718C39.113 40.9269 38.9716 43.9964 37.1541 46.2673C34.7968 49.2118 30.5118 49.7119 27.6012 47.3823Z" fill="#324950"/>
</svg>
